REM DIRINDEX 1\2,1\3,1\4
REM DIRNAME cjc151,folder01,folder02,folder03
TITLE ""
FILE "106 106_TOEFL_3900.mp3" MP3
  TRACK 01 AUDIO
    TITLE "2:cjc151_4620"
    INDEX 01 00:00:00
  TRACK 02 AUDIO
    TITLE "0:"
    INDEX 01 00:01:07
  TRACK 03 AUDIO
    TITLE "3:cjc151_4621"
    INDEX 01 00:02:59
  TRACK 04 AUDIO
    TITLE "0:"
    INDEX 01 00:06:20
  TRACK 05 AUDIO
    TITLE "2:cjc151_4622"
    INDEX 01 00:07:72
  TRACK 06 AUDIO
    TITLE "0:"
    INDEX 01 00:09:08
  TRACK 07 AUDIO
    TITLE "3:cjc151_4623"
    INDEX 01 00:10:68
  TRACK 08 AUDIO
    TITLE "0:"
    INDEX 01 00:14:70
  TRACK 09 AUDIO
    TITLE "2:cjc151_4624"
    INDEX 01 00:16:49
  TRACK 10 AUDIO
    TITLE "0:"
    INDEX 01 00:17:51
  TRACK 11 AUDIO
    TITLE "3:cjc151_4625"
    INDEX 01 00:19:26
  TRACK 12 AUDIO
    TITLE "0:"
    INDEX 01 00:22:17
  TRACK 13 AUDIO
    TITLE "2:cjc151_4626"
    INDEX 01 00:23:71
  TRACK 14 AUDIO
    TITLE "0:"
    INDEX 01 00:25:01
  TRACK 15 AUDIO
    TITLE "3:cjc151_4627"
    INDEX 01 00:26:56
  TRACK 16 AUDIO
    TITLE "0:"
    INDEX 01 00:30:16
  TRACK 17 AUDIO
    TITLE "2:cjc151_4628"
    INDEX 01 00:31:71
  TRACK 18 AUDIO
    TITLE "0:"
    INDEX 01 00:33:01
  TRACK 19 AUDIO
    TITLE "3:cjc151_4629"
    INDEX 01 00:34:55
  TRACK 20 AUDIO
    TITLE "0:"
    INDEX 01 00:39:11
  TRACK 21 AUDIO
    TITLE "2:cjc151_4630"
    INDEX 01 00:40:68
  TRACK 22 AUDIO
    TITLE "0:"
    INDEX 01 00:42:04
  TRACK 23 AUDIO
    TITLE "3:cjc151_4631"
    INDEX 01 00:43:58
  TRACK 24 AUDIO
    TITLE "0:"
    INDEX 01 00:46:66
  TRACK 25 AUDIO
    TITLE "2:cjc151_4632"
    INDEX 01 00:48:48
  TRACK 26 AUDIO
    TITLE "0:"
    INDEX 01 00:49:69
  TRACK 27 AUDIO
    TITLE "3:cjc151_4633"
    INDEX 01 00:51:46
  TRACK 28 AUDIO
    TITLE "0:"
    INDEX 01 00:55:44
  TRACK 29 AUDIO
    TITLE "2:cjc151_4634"
    INDEX 01 00:57:23
  TRACK 30 AUDIO
    TITLE "0:"
    INDEX 01 00:58:52
  TRACK 31 AUDIO
    TITLE "3:cjc151_4635"
    INDEX 01 01:00:29
  TRACK 32 AUDIO
    TITLE "0:"
    INDEX 01 01:03:45
  TRACK 33 AUDIO
    TITLE "2:cjc151_4636"
    INDEX 01 01:05:22
  TRACK 34 AUDIO
    TITLE "0:"
    INDEX 01 01:06:42
  TRACK 35 AUDIO
    TITLE "3:cjc151_4637"
    INDEX 01 01:08:19
  TRACK 36 AUDIO
    TITLE "0:"
    INDEX 01 01:11:15
  TRACK 37 AUDIO
    TITLE "2:cjc151_4638"
    INDEX 01 01:12:73
  TRACK 38 AUDIO
    TITLE "0:"
    INDEX 01 01:14:16
  TRACK 39 AUDIO
    TITLE "3:cjc151_4639"
    INDEX 01 01:15:70
  TRACK 40 AUDIO
    TITLE "0:"
    INDEX 01 01:19:50
  TRACK 41 AUDIO
    TITLE "2:cjc151_4640"
    INDEX 01 01:21:27
  TRACK 42 AUDIO
    TITLE "0:"
    INDEX 01 01:22:42
  TRACK 43 AUDIO
    TITLE "3:cjc151_4641"
    INDEX 01 01:24:24
  TRACK 44 AUDIO
    TITLE "0:"
    INDEX 01 01:26:72
  TRACK 45 AUDIO
    TITLE "2:cjc151_4642"
    INDEX 01 01:28:51
  TRACK 46 AUDIO
    TITLE "0:"
    INDEX 01 01:29:56
  TRACK 47 AUDIO
    TITLE "3:cjc151_4643"
    INDEX 01 01:31:38
  TRACK 48 AUDIO
    TITLE "0:"
    INDEX 01 01:35:10
  TRACK 49 AUDIO
    TITLE "2:cjc151_4644"
    INDEX 01 01:36:72
  TRACK 50 AUDIO
    TITLE "0:"
    INDEX 01 01:37:71
  TRACK 51 AUDIO
    TITLE "3:cjc151_4645"
    INDEX 01 01:39:53
  TRACK 52 AUDIO
    TITLE "0:"
    INDEX 01 01:43:68
  TRACK 53 AUDIO
    TITLE "2:cjc151_4646"
    INDEX 01 01:45:47
  TRACK 54 AUDIO
    TITLE "0:"
    INDEX 01 01:46:47
  TRACK 55 AUDIO
    TITLE "3:cjc151_4647"
    INDEX 01 01:48:18
  TRACK 56 AUDIO
    TITLE "0:"
    INDEX 01 01:51:74
  TRACK 57 AUDIO
    TITLE "2:cjc151_4648"
    INDEX 01 01:53:53
  TRACK 58 AUDIO
    TITLE "0:"
    INDEX 01 01:55:03
  TRACK 59 AUDIO
    TITLE "3:cjc151_4649"
    INDEX 01 01:56:57
  TRACK 60 AUDIO
    TITLE "0:"
    INDEX 01 02:00:24
  TRACK 61 AUDIO
    TITLE "2:cjc151_4650"
    INDEX 01 02:02:05
  TRACK 62 AUDIO
    TITLE "0:"
    INDEX 01 02:03:08
  TRACK 63 AUDIO
    TITLE "3:cjc151_4651"
    INDEX 01 02:04:60
  TRACK 64 AUDIO
    TITLE "0:"
    INDEX 01 02:07:63
  TRACK 65 AUDIO
    TITLE "2:cjc151_4652"
    INDEX 01 02:09:50
  TRACK 66 AUDIO
    TITLE "0:"
    INDEX 01 02:10:51
  TRACK 67 AUDIO
    TITLE "3:cjc151_4653"
    INDEX 01 02:12:27
  TRACK 68 AUDIO
    TITLE "0:"
    INDEX 01 02:16:07
  TRACK 69 AUDIO
    TITLE "2:cjc151_4654"
    INDEX 01 02:17:59
  TRACK 70 AUDIO
    TITLE "0:"
    INDEX 01 02:18:74
  TRACK 71 AUDIO
    TITLE "3:cjc151_4655"
    INDEX 01 02:20:54
  TRACK 72 AUDIO
    TITLE "0:"
    INDEX 01 02:24:14
  TRACK 73 AUDIO
    TITLE "2:cjc151_4656"
    INDEX 01 02:25:68
  TRACK 74 AUDIO
    TITLE "0:"
    INDEX 01 02:26:62
  TRACK 75 AUDIO
    TITLE "3:cjc151_4657"
    INDEX 01 02:28:47
  TRACK 76 AUDIO
    TITLE "0:"
    INDEX 01 02:32:10
  TRACK 77 AUDIO
    TITLE "2:cjc151_4658"
    INDEX 01 02:33:64
  TRACK 78 AUDIO
    TITLE "0:"
    INDEX 01 02:35:69
  TRACK 79 AUDIO
    TITLE "3:cjc151_4659"
    INDEX 01 02:37:48
  TRACK 80 AUDIO
    TITLE "0:"
    INDEX 01 02:41:03
  TRACK 81 AUDIO
    TITLE "2:cjc151_4660"
    INDEX 01 02:42:59
  TRACK 82 AUDIO
    TITLE "0:"
    INDEX 01 02:43:64
  TRACK 83 AUDIO
    TITLE "3:cjc151_4661"
    INDEX 01 02:45:42
  TRACK 84 AUDIO
    TITLE "0:"
    INDEX 01 02:49:10
  TRACK 85 AUDIO
    TITLE "2:cjc151_4662"
    INDEX 01 02:50:66
  TRACK 86 AUDIO
    TITLE "0:"
    INDEX 01 02:51:62
  TRACK 87 AUDIO
    TITLE "3:cjc151_4663"
    INDEX 01 02:53:39
  TRACK 88 AUDIO
    TITLE "0:"
    INDEX 01 02:56:12
